<svg width="1280" height="267" viewBox="0 0 1280 267" fill="none" xmlns="http://www.w3.org/2000/svg">
<path d="M1280 61.2042C1280 77.3426 1258.69 97.135 1247.72 106.879C1225.19 126.367 1201.13 141.287 1174.03 153.467C1167.03 163.211 1127.45 214.062 1127.45 226.242C1127.45 229.287 1129.58 231.419 1132.62 231.419C1144.5 231.419 1172.21 207.972 1180.73 200.36C1186.52 194.879 1191.7 189.398 1197.18 183.612C1198.09 182.699 1200.22 179.958 1202.05 179.958C1202.96 179.958 1203.57 180.567 1203.57 181.481C1203.57 182.699 1197.48 189.093 1196.87 189.702C1183.47 204.318 1151.2 236.291 1129.58 236.291C1121.05 236.291 1115.88 230.81 1115.88 222.588C1115.88 217.716 1117.4 212.844 1119.53 208.277C1125.62 195.488 1135.36 183.612 1144.19 172.346C1156.37 156.817 1169.16 141.592 1181.65 126.367C1195.65 109.315 1246.81 52.3738 1270.87 52.3738C1276.65 52.3738 1280 55.4188 1280 61.2042ZM1275.43 62.7267C1275.43 59.3772 1273.91 56.6367 1270.26 56.6367C1252.6 56.6367 1213.62 100.484 1203.27 113.273C1194.44 124.235 1185.91 135.502 1178.3 147.377C1203.57 134.588 1221.54 124.235 1242.85 105.052C1252.6 96.526 1275.43 76.7336 1275.43 62.7267Z" fill="white"/>
<path d="M1153.09 182.09C1139.08 198.837 1097.97 236.29 1074.53 236.29C1062.96 236.29 1053.21 226.546 1053.21 214.976C1053.21 201.882 1063.26 189.398 1071.79 180.263C1080.62 170.519 1102.54 155.598 1116.55 155.598C1122.03 155.598 1128.12 158.339 1128.12 164.733C1128.12 187.571 1085.79 202.187 1068.44 207.972C1066 211.626 1063.87 215.28 1063.87 219.847C1063.87 226.546 1068.44 231.114 1075.14 231.114C1094.93 231.114 1129.95 201.273 1143.04 188.18C1144.56 186.657 1149.74 180.872 1151.87 180.872C1152.48 180.872 1153.09 181.481 1153.09 182.09ZM1122.03 163.82C1122.03 160.775 1119.59 159.252 1116.85 159.252C1101.93 159.252 1078.49 191.834 1071.18 203.1C1083.36 198.533 1096.76 193.965 1107.11 185.439C1112.59 180.872 1122.03 171.737 1122.03 163.82Z" fill="white"/>
<path d="M1087.62 180.567C1087.62 183.003 1081.83 187.571 1080.31 188.789C1075.13 193.356 1068.13 196.097 1061.13 196.097C1056.86 196.097 1053.52 195.183 1049.56 193.661C1038.59 207.059 1011.19 236.595 992.311 236.595C985.612 236.595 981.349 231.114 981.349 224.72C981.349 203.1 1019.11 179.654 1019.11 164.734C1019.11 161.993 1017.89 159.862 1014.84 159.862C1006.01 159.862 984.699 186.048 981.045 186.048C980.436 186.048 979.827 185.439 979.827 184.83C979.827 183.612 984.394 179.045 985.308 178.131C993.225 170.215 1007.23 154.381 1019.41 154.381C1026.41 154.381 1031.59 158.035 1031.59 165.343C1031.59 184.83 992.92 212.844 992.92 225.329C992.92 228.069 994.747 230.81 997.792 230.81C1009.67 230.81 1038.59 200.664 1046.21 191.225C1044.08 188.18 1041.94 183.308 1041.94 179.349C1041.94 170.519 1048.64 155.599 1059 155.599C1063.56 155.599 1066.3 159.557 1066.3 163.82C1066.3 174.477 1059 183.003 1052.3 190.311C1055.34 191.834 1058.08 192.443 1061.43 192.443C1076.05 192.443 1084.27 179.349 1086.4 179.349C1087.01 179.349 1087.62 179.958 1087.62 180.567ZM1062.35 164.734C1062.35 162.298 1060.82 159.862 1058.08 159.862C1050.77 159.862 1045.9 173.564 1045.9 179.349C1045.9 182.699 1046.82 185.439 1048.95 188.18C1054.43 182.394 1062.35 173.26 1062.35 164.734Z" fill="white"/>
<path d="M996.708 182.394C996.708 184.83 985.441 194.879 983.31 196.706C971.13 208.581 940.68 236.29 922.715 236.29C916.625 236.29 911.144 233.245 911.144 226.546C911.144 222.892 912.666 218.325 913.884 214.671C905.967 221.979 891.961 236.29 880.39 236.29C870.646 236.29 863.033 229.591 863.033 219.543C863.033 191.225 913.275 157.121 939.462 157.121C943.725 157.121 951.033 158.643 951.033 164.124C951.033 165.038 950.729 166.256 950.424 167.169L957.123 158.948L974.479 158.034L934.895 207.972C932.459 211.017 923.019 223.501 923.019 227.155C923.019 229.896 925.76 231.114 927.891 231.114C943.421 231.114 993.967 180.872 995.49 180.872C996.403 180.872 996.708 181.481 996.708 182.394ZM944.943 167.474C944.943 164.124 942.203 161.384 938.853 161.384C926.978 161.384 912.057 176.609 904.445 184.221C897.137 191.529 874.604 214.975 874.604 226.242C874.604 229.287 877.345 232.636 880.39 232.636C893.483 232.636 944.943 181.176 944.943 167.474Z" fill="white"/>
<path d="M902.249 182.394C902.249 183.917 894.027 191.834 892.809 193.052C881.543 204.014 850.789 235.072 835.259 235.072C826.733 235.072 821.861 229.896 821.861 221.37C821.861 201.882 856.27 174.477 869.972 163.211C866.927 164.124 863.882 164.429 860.837 164.429C857.488 164.429 852.92 162.602 850.18 160.47C847.439 163.515 827.951 185.135 825.82 185.135C824.906 185.135 824.297 184.526 824.297 183.612C824.297 182.394 826.124 180.872 826.733 180.263C834.65 172.65 841.958 164.429 848.962 155.903C848.962 149.813 851.702 139.46 859.315 139.46C862.969 139.46 864.491 143.114 864.491 146.159C864.491 150.422 860.837 154.076 858.097 156.816C860.533 158.034 863.273 158.948 866.013 158.948C871.799 158.948 878.193 157.121 883.979 155.598C884.588 156.207 886.11 157.425 886.11 158.339C886.11 159.861 880.934 164.124 880.02 165.038C869.972 174.782 834.955 207.972 834.955 225.024C834.955 227.46 836.782 229.287 839.218 229.287C855.052 229.287 897.681 180.872 900.422 180.872C901.335 180.872 902.249 181.481 902.249 182.394Z" fill="white"/>
<path d="M945.621 13.7024C945.621 26.7958 922.784 35.0173 912.735 37.4533C906.95 38.6712 901.164 39.2803 895.379 39.2803C889.593 39.2803 883.808 38.9758 878.022 38.0623C830.825 76.429 826.258 108.401 799.766 157.73C776.32 200.969 739.476 236.595 687.407 236.595C649.649 236.595 618.895 223.806 605.801 186.048C588.445 175.695 580.528 165.951 580.528 145.246C580.528 129.107 586.313 115.1 595.753 102.311C600.625 95.9169 622.244 77.038 630.161 77.038C631.075 77.038 632.293 77.3425 632.293 78.5605C632.293 79.7785 621.635 84.955 621.331 85.2595C600.32 98.0484 584.486 120.277 584.486 145.246C584.486 162.602 590.272 171.737 604.888 180.872C604.888 152.858 611.282 131.543 629.857 110.228C646.299 91.3494 670.355 75.5155 696.237 75.5155C714.812 75.5155 731.863 85.2595 731.863 105.661C731.863 127.585 715.421 151.336 699.282 165.038C681.621 180.263 655.434 190.92 631.988 190.92C624.68 190.92 617.677 189.398 610.673 187.875C616.763 201.273 621.026 209.19 633.511 217.716C645.082 225.329 658.784 229.287 672.791 229.287C695.324 229.287 718.77 218.63 736.126 204.623C761.095 184.526 776.929 154.685 793.981 128.194C807.379 107.183 821.081 85.8685 838.133 67.5986C848.486 56.6366 860.057 46.8927 871.628 37.4533C841.178 32.5813 791.545 14.9204 775.407 14.9204C748.915 14.9204 728.209 30.7543 728.209 58.4636C728.209 66.0761 731.559 73.0795 731.559 77.038C731.559 77.9515 730.95 78.256 730.036 78.256C726.382 78.256 724.251 59.3771 724.251 56.6366C724.251 41.4117 731.863 25.2733 743.434 15.2249C755.005 5.17646 775.407 0 790.327 0C806.465 0 824.735 4.56747 839.96 9.43943C856.099 14.6159 871.932 21.3149 888.375 25.2733C901.164 17.0519 919.739 7.00346 935.268 7.00346C939.531 7.00346 945.621 8.22145 945.621 13.7024ZM941.358 14.0069C941.358 11.2664 938.922 10.3529 936.486 10.3529C922.784 10.3529 905.123 19.7924 894.161 27.1003C899.946 28.9273 905.732 30.1453 911.822 30.1453C919.739 30.1453 941.358 24.3598 941.358 14.0069ZM727.296 105.052C727.296 87.6954 712.68 79.474 696.846 79.474C651.171 79.474 608.542 129.412 608.542 173.564C608.542 176.609 608.846 179.654 608.846 182.699C616.763 184.526 624.985 186.353 633.206 186.353C673.704 186.353 727.296 148.595 727.296 105.052Z" fill="white"/>
<path d="M593.956 182.089C593.956 184.525 583.908 192.138 581.777 193.66C577.209 197.01 565.638 202.186 559.853 202.186C556.199 202.186 552.849 202.186 549.195 201.577C537.624 214.366 513.264 236.29 495.299 236.29C485.86 236.29 478.552 227.46 478.552 218.325C478.552 191.529 525.14 154.685 550.718 154.685C559.244 154.685 564.116 159.861 564.116 168.387C564.116 178.74 557.417 189.397 552.24 197.923C565.943 197.923 574.469 195.183 585.431 186.657C586.344 185.743 591.52 180.871 592.434 180.871C593.043 180.871 593.956 181.176 593.956 182.089ZM559.853 167.778C559.853 163.82 556.808 160.775 552.849 160.775C536.102 160.775 515.091 184.221 505.652 195.792C501.389 200.968 488.905 215.584 488.905 223.197C488.905 228.373 492.863 231.723 497.735 231.723C509.306 231.723 530.925 213.757 538.538 206.145C546.455 198.228 559.853 179.349 559.853 167.778Z" fill="white"/>
<path d="M545.977 92.5674L513.395 131.543H531.97L528.925 136.72H509.741L455.541 202.491C450.973 208.277 442.143 217.412 442.143 225.329C442.143 228.983 445.188 231.419 448.537 231.419C461.935 231.419 498.475 196.097 507.305 187.571C508.523 186.353 513.091 180.567 514.918 180.567C515.527 180.567 516.44 180.872 516.44 181.785C516.44 183.003 511.873 187.875 510.655 189.093C497.866 202.187 464.98 236.29 445.188 236.29C436.966 236.29 431.181 231.723 431.181 223.197C431.181 208.581 446.71 191.529 455.541 181.176L493.908 136.72H477.16L480.51 131.543H498.17L528.925 95.0034L545.977 92.5674Z" fill="white"/>
<path d="M472.048 182.09C458.041 198.837 416.934 236.29 393.488 236.29C381.917 236.29 372.173 226.546 372.173 214.976C372.173 201.882 382.221 189.398 390.747 180.263C399.578 170.519 421.502 155.598 435.508 155.598C440.989 155.598 447.079 158.339 447.079 164.733C447.079 187.571 404.754 202.187 387.398 207.972C384.962 211.626 382.83 215.28 382.83 219.847C382.83 226.546 387.398 231.114 394.097 231.114C413.889 231.114 448.906 201.273 462 188.18C463.522 186.657 468.699 180.872 470.83 180.872C471.439 180.872 472.048 181.481 472.048 182.09ZM440.989 163.82C440.989 160.775 438.553 159.252 435.813 159.252C420.893 159.252 397.446 191.834 390.138 203.1C402.318 198.533 415.716 193.965 426.069 185.439C431.55 180.872 440.989 171.737 440.989 163.82Z" fill="white"/>
<path d="M406.578 180.567C406.578 183.003 400.793 187.571 399.27 188.789C394.094 193.356 387.091 196.097 380.087 196.097C375.824 196.097 372.475 195.183 368.516 193.661C357.554 207.059 330.149 236.595 311.271 236.595C304.572 236.595 300.309 231.114 300.309 224.72C300.309 203.1 338.066 179.654 338.066 164.734C338.066 161.993 336.848 159.862 333.803 159.862C324.973 159.862 303.658 186.048 300.004 186.048C299.395 186.048 298.786 185.439 298.786 184.83C298.786 183.612 303.354 179.045 304.267 178.131C312.184 170.215 326.191 154.381 338.371 154.381C345.374 154.381 350.551 158.035 350.551 165.343C350.551 184.83 311.88 212.844 311.88 225.329C311.88 228.069 313.707 230.81 316.751 230.81C328.627 230.81 357.554 200.664 365.167 191.225C363.035 188.18 360.904 183.308 360.904 179.349C360.904 170.519 367.603 155.599 377.956 155.599C382.523 155.599 385.264 159.557 385.264 163.82C385.264 174.477 377.956 183.003 371.257 190.311C374.302 191.834 377.042 192.443 380.392 192.443C395.007 192.443 403.229 179.349 405.36 179.349C405.969 179.349 406.578 179.958 406.578 180.567ZM381.305 164.734C381.305 162.298 379.783 159.862 377.042 159.862C369.734 159.862 364.862 173.564 364.862 179.349C364.862 182.699 365.776 185.439 367.907 188.18C373.388 182.394 381.305 173.26 381.305 164.734Z" fill="white"/>
<path d="M309.575 132.761C309.575 137.938 304.703 142.505 299.526 142.505C296.177 142.505 293.436 139.765 293.436 136.415C293.436 131.239 298.308 126.671 303.485 126.671C306.834 126.671 309.575 129.412 309.575 132.761ZM315.969 182.394C315.969 184.526 311.402 187.875 309.879 189.398C298.917 199.751 260.855 236.291 244.412 236.291C237.409 236.291 231.014 231.114 231.014 223.806C231.014 210.104 257.201 180.567 265.423 170.214L275.471 157.73L294.045 155.903L264.814 192.138C260.246 197.619 241.672 219.848 241.672 227.156C241.672 229.896 243.194 231.419 245.935 231.419C260.551 231.419 313.533 180.872 314.751 180.872C315.665 180.872 315.969 181.785 315.969 182.394Z" fill="white"/>
<path d="M311.806 19.4877C311.806 37.1486 285.619 65.7714 274.353 77.6469C254.256 99.2662 231.418 116.014 207.363 132.761C185.135 172.041 161.384 198.837 122.408 221.979C142.505 228.373 161.993 235.377 181.481 242.989C190.007 246.339 208.277 253.342 217.412 253.342C224.719 253.342 231.723 251.211 237.508 247.252C238.422 246.643 239.335 245.73 240.553 245.425C241.467 245.425 242.076 246.034 242.076 246.948C242.076 249.688 235.072 254.865 233.55 256.083C224.719 262.782 213.453 266.436 202.491 266.436C185.744 266.436 159.252 251.515 144.941 244.512C133.37 238.726 122.104 232.941 110.837 227.155C93.1764 231.723 75.211 236.29 56.6366 236.29C49.9377 236.29 29.8408 233.854 29.8408 224.11C29.8408 212.54 53.8961 210.408 61.5086 210.408C79.7785 210.408 97.4393 214.975 115.1 219.543C141.592 204.014 156.816 181.176 171.128 154.685C143.114 166.56 116.927 177.218 85.8684 177.218C49.6332 177.218 24.0553 165.342 18.8789 126.671C7.30795 116.318 0 106.879 0 90.7403C0 80.0828 3.65398 71.2524 9.13494 62.1175C12.1799 57.2455 24.3598 41.1071 30.4498 41.1071C31.0588 41.1071 31.6678 41.7161 31.6678 42.3251C31.6678 43.2386 30.4498 43.8476 29.8408 44.4565C16.4429 54.2005 4.26297 74.6019 4.26297 91.3493C4.26297 104.138 9.43944 111.751 18.2699 120.581C19.1834 75.8199 61.8131 39.2801 100.789 24.3597C117.841 17.9652 136.111 14.6157 154.38 14.6157C175.086 14.6157 203.1 22.8372 203.1 48.1105C203.1 87.0863 154.076 119.363 121.495 130.63C105.965 136.11 89.5224 139.46 73.0795 139.46C55.7231 139.46 39.5847 136.415 23.7508 129.107C25.8823 143.418 29.5363 152.249 41.4117 161.079C52.6782 169.605 69.121 172.955 83.1279 172.955C117.841 172.955 144.028 161.384 175.086 147.072C187.266 126.062 199.751 105.052 212.844 84.6503C220.761 72.1659 228.982 59.377 238.422 47.806C250.906 32.2766 277.702 7.0033 299.017 7.0033C305.716 7.0033 311.806 12.4843 311.806 19.4877ZM306.934 19.4877C306.934 15.2247 303.28 11.5708 299.017 11.5708C284.097 11.5708 267.654 28.0137 259.128 38.6711C240.858 61.813 225.328 96.8302 212.844 123.322C235.072 107.488 256.387 91.6538 274.657 71.2524C284.706 59.986 306.934 35.9306 306.934 19.4877ZM198.837 48.1105C198.837 25.2732 172.955 18.8787 154.685 18.8787C97.7438 18.8787 23.4463 59.986 23.4463 123.931C37.4532 130.63 55.1141 135.197 70.6435 135.197C87.9999 135.197 105.052 131.543 121.19 125.758C151.031 114.796 198.837 84.3458 198.837 48.1105ZM102.007 224.415C88.9134 219.847 70.339 214.976 56.6366 214.976C52.3736 214.976 35.0173 217.107 35.0173 223.501C35.0173 230.809 54.8096 231.418 59.6816 231.418C77.038 231.418 85.5639 229.896 102.007 224.415Z" fill="white"/>
</svg>
