<svg width="32" height="32" viewBox="0 0 32 32" fill="none" xmlns="http://www.w3.org/2000/svg"><path d="M11.5 15.378c-.398 0-.78.164-1.06.456-.282.291-.44.686-.44 1.098s.158.808.44 1.1c.28.29.662.454 1.06.454s.78-.163 1.06-.455c.282-.291.44-.686.44-1.099s-.158-.807-.44-1.098a1.47 1.47 0 0 0-1.06-.456m9 0c-.398 0-.78.164-1.06.456-.282.291-.44.686-.44 1.098s.158.808.44 1.1c.28.29.662.454 1.06.454s.78-.163 1.06-.455c.282-.291.44-.686.44-1.099s-.158-.807-.44-1.098a1.47 1.47 0 0 0-1.06-.456m-6 1.554c0-.412.158-.807.44-1.098a1.47 1.47 0 0 1 1.06-.456c.398 0 .78.164 1.06.456.282.291.44.686.44 1.098s-.158.808-.44 1.1a1.47 1.47 0 0 1-1.06.454c-.398 0-.78-.163-1.06-.455a1.58 1.58 0 0 1-.44-1.099m-3 3.42c-.398 0-.78.163-1.06.454-.282.292-.44.687-.44 1.1 0 .412.158.807.44 1.098.28.292.662.455 1.06.455s.78-.163 1.06-.455c.282-.291.44-.686.44-1.099s-.158-.807-.44-1.099a1.47 1.47 0 0 0-1.06-.455m3 1.553c0-.412.158-.807.44-1.099A1.47 1.47 0 0 1 16 20.35c.398 0 .78.164 1.06.456.282.291.44.686.44 1.098s-.158.808-.44 1.1a1.47 1.47 0 0 1-1.06.454c-.398 0-.78-.163-1.06-.455a1.58 1.58 0 0 1-.44-1.099" fill="#fff"/><path d="M14.04 4.5h3.92c1.31 0 2.35 0 3.186.07.856.073 1.58.225 2.242.573a5.8 5.8 0 0 1 2.49 2.582c.338.684.484 1.435.554 2.322.068.867.068 1.944.068 3.301v5.304c0 1.357 0 2.434-.068 3.3-.07.888-.216 1.638-.552 2.324a5.8 5.8 0 0 1-2.492 2.58c-.662.35-1.386.501-2.242.573-.837.071-1.876.071-3.186.071h-3.92c-1.31 0-2.35 0-3.186-.07-.856-.073-1.58-.225-2.241-.573a5.8 5.8 0 0 1-2.491-2.58c-.338-.687-.484-1.437-.554-2.324-.068-.867-.068-1.944-.068-3.301v-5.304c0-1.357 0-2.434.068-3.3.07-.888.216-1.638.552-2.323a5.8 5.8 0 0 1 2.493-2.581c.66-.35 1.385-.501 2.241-.573.837-.071 1.876-.071 3.186-.071M7.3 12.892v5.719c0 1.408 0 2.408.062 3.19.06.77.177 1.25.363 1.629a3.97 3.97 0 0 0 1.704 1.765c.366.193.828.312 1.572.375.756.064 1.72.065 3.079.065h3.84c1.36 0 2.324 0 3.08-.065.743-.062 1.205-.182 1.571-.375a3.97 3.97 0 0 0 1.704-1.765c.186-.38.301-.858.363-1.629.06-.783.062-1.783.062-3.19v-5.72zM13 8.23c-.318 0-.623.13-.848.364-.226.233-.352.55-.352.879 0 .33.126.646.351.88.226.232.53.363.849.363h6c.318 0 .624-.13.849-.364s.351-.55.351-.879c0-.33-.126-.646-.351-.88A1.18 1.18 0 0 0 19 8.23z" fill="#fff"/></svg>