<svg width="32" height="32" viewBox="0 0 32 32" fill="none" xmlns="http://www.w3.org/2000/svg"><path d="M16 4C9.374 4 4 9.374 4 16s5.374 12 12 12 12-5.374 12-12S22.626 4 16 4m0 21.963c-5.497 0-9.988-4.466-9.988-9.987 0-5.498 4.491-9.964 9.988-9.964S25.988 10.48 25.988 16c-.025 5.497-4.491 9.963-9.988 9.963" fill="#fff"/><path d="m20.589 19.51-2.233-2.111s-1.154 1.3-1.669 1.104c0 0-1.62-.957-2.847-3.583-.245-.49 1.448-1.399 1.448-1.399l-1.57-2.65s-2.479 1.252-2.307 2.675c.172 1.448 1.3 5.374 5.767 7.558 1.546.786 3.411-1.595 3.411-1.595" fill="#fff"/></svg>