<svg width="64" height="64" viewBox="0 0 64 64" fill="none" xmlns="http://www.w3.org/2000/svg"><path d="M41.6 56v-5.4q-3.36-1.08-5.64-3.84t-2.64-6.36h4.8q.48 2.58 2.431 4.289T45.2 46.4h7.2q1.5 0 2.551 1.051T56 50v6zm7.2-12q-1.98 0-3.389-1.409T44 39.2t1.411-3.389T48.8 34.4t3.391 1.411T53.6 39.2t-1.409 3.391T48.8 44m-24-7.2q0-9 6.3-15.3t15.3-6.3V20q-7.02 0-11.909 4.891T29.6 36.8zm9.6 0q0-4.98 3.511-8.489T46.4 24.8v4.8q-3 0-5.1 2.1t-2.1 5.1zM8 29.6v-6q0-1.5 1.051-2.549T11.6 20h7.2q2.7 0 4.651-1.709T25.88 14h4.8q-.36 3.6-2.64 6.36T22.4 24.2v5.4zm7.2-12q-1.98 0-3.389-1.409T10.4 12.8t1.411-3.389T15.2 8t3.391 1.411T20 12.8t-1.409 3.391T15.2 17.6" fill="#fff"/></svg>