<svg width="64" height="64" viewBox="0 0 64 64" fill="none" xmlns="http://www.w3.org/2000/svg"><path fill-rule="evenodd" clip-rule="evenodd" d="M23.3 8h2.786a.1.1 0 0 1 .102.1v2.42a.1.1 0 0 0 .1.1l8.146-.002a.1.1 0 0 1 .101.1v4.637a.1.1 0 0 1-.101.1h-8.145a.1.1 0 0 0-.101.101v3.855c0 .031.013.06.038.078q.039.03.088.018a18.4 18.4 0 0 1 4.653-.596c5.024 0 9.571 2.02 12.863 5.284a17.92 17.92 0 0 1 5.184 10.48q.002.02-.002.036c-.268 1.102-.664 2.455-1.18 3.446l-.007.016a2.78 2.78 0 0 1-2.683.196 2.73 2.73 0 0 1-1.562-2.893l.002-.013q.946-3.188-1.745-5.39-2.333-1.917-3.284-1.307c-2.168 1.393.858 4.817.847 6.532-.027 4.136-2.25 2.257-.041 6.04.31.534.515 1.21.82 1.929q.004.007.004.013.63 2.458-.194 3.221c-1.56 1.447-6.11-2.234-7.287-2.98-4.732-3.002-1.86-2.766-4.538-5.917a7.1 7.1 0 0 0-3.77-2.308l-.01-.002a4.59 4.59 0 0 1-3.019-3.413c-.725-3.518 2.168-3.93 2.666-6.791a4.8 4.8 0 0 0-.392-2.889.1.1 0 0 0-.059-.05.1.1 0 0 0-.078.004c-3.787 1.881-6.752 5.15-8.215 9.134a.1.1 0 0 0 .016.096c.619.79.846 1.913.61 4.457a.1.1 0 0 0 .059.1c4.088 1.813 5.558 4.271 4.984 6.666a.1.1 0 0 0 .049.112q5.243 2.854 4.29 7.985a.1.1 0 0 1-.112.08 21.7 21.7 0 0 1-5.24-1.418l.002.003a21.5 21.5 0 0 1-3.895-2.092.1.1 0 0 1-.024-.024 17.84 17.84 0 0 1-3.256-10.3c0-7.183 4.237-13.386 10.367-16.288a.1.1 0 0 0 .058-.09v-5.015a.1.1 0 0 0-.101-.1l-6.688-.005a.1.1 0 0 1-.054-.016l-3.651-2.294a.1.1 0 0 1-.048-.085q0-.054.045-.085l3.654-2.342a.1.1 0 0 1 .054-.015h6.69a.1.1 0 0 0 .102-.1v-2.42a.1.1 0 0 1 .1-.099zm26 12.012a.1.1 0 0 1-.007-.103.1.1 0 0 1 .088-.056l.968-.02h.007c1.43-.125 1.148-2.408-.068-2.355l-1.294.058a.1.1 0 0 1-.077-.029l-1.85-1.835q-.04-.04-.027-.096a.1.1 0 0 1 .072-.071l1.28-.34a1.424 1.424 0 0 0 1.014-1.738l-.025-.092a1.44 1.44 0 0 0-1.754-1.004l-3.043.808a.1.1 0 0 1-.097-.027l-1.49-1.478a1.76 1.76 0 0 0-2.497.023 1.726 1.726 0 0 0 0 2.453l1.49 1.478q.042.04.028.096l-.797 2.948a1.42 1.42 0 0 0 1.013 1.74l.092.024a1.435 1.435 0 0 0 1.754-1.005l.324-1.2a.1.1 0 0 1 .072-.072.1.1 0 0 1 .097.027l1.855 1.84q.028.026.029.066l.04 1.04c.059 1.505 2.202 1.523 2.335.26l.094-.894c.005-.047.039-.08.086-.089a.1.1 0 0 1 .108.058c4.554 10.052 1.177 22.065-8.26 28.271-9.736 6.402-22.704 4.51-30.183-4.239a.1.1 0 0 0-.135-.015.1.1 0 0 0-.029.131c4.2 7.222 12.066 11.628 20.53 11.418 8.838-.219 16.772-5.436 20.414-13.425A22.69 22.69 0 0 0 49.3 20.012" fill="#fff"/></svg>