<svg width="64" height="64" viewBox="0 0 64 64" fill="none" xmlns="http://www.w3.org/2000/svg"><path d="M40.432 26.517a7.34 7.34 0 0 1-5.035 6.95 4.05 4.05 0 0 0-2.748 3.838v.883-.003a1.946 1.946 0 0 1-3.892 0v-.882.002a7.78 7.78 0 0 1 5.421-7.52 3.45 3.45 0 0 0 2.362-3.268A4.54 4.54 0 0 0 32 21.982a4.54 4.54 0 0 0-4.542 4.535 1.945 1.945 0 0 1-3.892 0c0-4.652 3.775-8.425 8.433-8.425s8.433 3.773 8.433 8.425Zm-9.73 16.206c-.788 0-1.498.474-1.797 1.201a1.942 1.942 0 0 0 2.542 2.54 1.944 1.944 0 0 0-.744-3.74ZM56 32.016A23.96 23.96 0 0 1 45.687 51.73a23.99 23.99 0 0 1-22.094 2.74l-12.116 1.504h-.233a1.924 1.924 0 0 1-1.922-2.178l1.35-10.812a23.97 23.97 0 0 1-.503-20.964A24 24 0 0 1 26.352 8.673a24.01 24.01 0 0 1 20.5 4.473A23.97 23.97 0 0 1 56 32.016Zm-3.892 0a20.09 20.09 0 0 0-7.776-15.888 20.114 20.114 0 0 0-30.787 7.893 20.08 20.08 0 0 0 .837 17.665c.184.37.257.785.209 1.193l-1.117 8.946 10.12-1.272h.26c.24 0 .481.054.7.156A20.5 20.5 0 0 0 32 52.136a20.14 20.14 0 0 0 14.22-5.902 20.1 20.1 0 0 0 5.888-14.218Z" fill="#fff" stroke="#fff"/></svg>