<svg width="64" height="64" viewBox="0 0 64 64" fill="none" xmlns="http://www.w3.org/2000/svg"><path d="M48.722 51.2V21.8H15.278v29.4zM41.556 8h4.777v4.8h2.39c1.266 0 2.482.506 3.378 1.406S53.5 16.327 53.5 17.6v33.6c0 2.664-2.126 4.8-4.778 4.8H15.278a4.77 4.77 0 0 1-3.379-1.406A4.8 4.8 0 0 1 10.5 51.2V17.6c0-2.64 2.15-4.8 4.778-4.8h2.389V8h4.777v4.8h19.112zM32 46.808l-1.386-1.272c-4.92-4.488-8.17-7.44-8.17-11.064 0-2.952 2.318-5.28 5.256-5.28 1.672 0 3.249.768 4.3 1.992 1.051-1.224 2.628-1.992 4.3-1.992 2.938 0 5.256 2.328 5.256 5.28 0 3.624-3.25 6.576-8.17 11.064z" fill="#fff"/></svg>