<svg width="32" height="32" viewBox="0 0 32 32" fill="none" xmlns="http://www.w3.org/2000/svg"><path d="m17.028 6.636 7.04 5.681c.396.318.632.81.632 1.333v10.382c0 .96-.766 1.699-1.66 1.699H19.9v-5.603c0-.86-.348-1.685-.967-2.293a3.33 3.33 0 0 0-2.333-.95h-1.2c-.875 0-1.715.342-2.333.95a3.22 3.22 0 0 0-.967 2.293v5.603H8.96c-.894 0-1.66-.739-1.66-1.699V13.651c0-.525.236-1.014.632-1.333l7.04-5.684a1.625 1.625 0 0 1 2.056.002m6.012 20.863a3.464 3.464 0 0 0 3.46-3.468V13.65a3.44 3.44 0 0 0-.337-1.493 3.5 3.5 0 0 0-.953-1.208l-7.038-5.682a3.44 3.44 0 0 0-2.17-.767c-.793 0-1.56.271-2.172.767L6.79 10.95a3.5 3.5 0 0 0-.953 1.208 3.44 3.44 0 0 0-.337 1.493v10.381A3.464 3.464 0 0 0 8.96 27.5z" fill="#fff"/></svg>