<svg width="32" height="32" viewBox="0 0 32 32" fill="none" xmlns="http://www.w3.org/2000/svg"><path d="M17.932 20.1c0-.36-.139-.71-.393-.971a1.35 1.35 0 0 0-.97-.414h-1.137c-.368 0-.717.152-.971.414a1.4 1.4 0 0 0-.393.971v5.483h3.864zm1.818 5.483h2.917c.833 0 1.515-.715 1.515-1.607v-10.31c0-.488-.211-.95-.57-1.254v-.001l-6.666-5.643-.003-.002a1.45 1.45 0 0 0-.813-.344L16 6.417c-.347 0-.68.125-.943.349l-.002.003-6.668 5.642a1.65 1.65 0 0 0-.569 1.256v10.31c0 .89.681 1.606 1.515 1.606h2.917V20.1c0-.882.34-1.725.94-2.342a3.12 3.12 0 0 1 2.242-.96h1.136c.837 0 1.645.343 2.243.96.599.617.939 1.46.939 2.342zM26 23.976c0 1.944-1.489 3.524-3.333 3.524H9.333C7.489 27.5 6 25.92 6 23.976v-10.31c0-1.068.46-2.08 1.25-2.749l6.663-5.64v-.001A3.2 3.2 0 0 1 16 4.5l.283.013c.658.06 1.288.323 1.804.763l6.662 5.64.145.13A3.62 3.62 0 0 1 26 13.666z" fill="#787878"/></svg>