<svg width="32" height="32" viewBox="0 0 32 32" fill="none" xmlns="http://www.w3.org/2000/svg"><path fill-rule="evenodd" clip-rule="evenodd" d="M13.717 6.34h8.218V16a.7.7 0 0 1-.347.6.68.68 0 0 1-.69-.008l-3.072-1.857-3.072 1.858a.68.68 0 0 1-.944-.245.7.7 0 0 1-.093-.348z" fill="#fff"/><path d="M9.609 4.96h13.695c.727 0 1.424.29 1.937.808a2.77 2.77 0 0 1 .803 1.952v16.56a2.77 2.77 0 0 1-.803 1.952 2.73 2.73 0 0 1-1.937.808H9.61c-.727 0-1.423-.29-1.937-.808a2.77 2.77 0 0 1-.802-1.952V22.9h1.37v1.38c0 .366.143.717.4.976s.605.404.969.404h13.695c.364 0 .712-.145.969-.404s.4-.61.4-.976V7.72c0-.366-.143-.717-.4-.976a1.36 1.36 0 0 0-.969-.404H9.61c-.364 0-.712.145-.969.404s-.4.61-.4.976V9.1H6.87V7.72c0-.732.288-1.434.802-1.952a2.73 2.73 0 0 1 1.937-.808" fill="#fff"/><path d="M7.783 24.28v-.92h-.457v.92c0 .61.24 1.195.669 1.626a2.27 2.27 0 0 0 1.614.674h13.695a2.27 2.27 0 0 0 1.614-.674 2.3 2.3 0 0 0 .669-1.626V7.72c0-.61-.24-1.195-.669-1.626a2.27 2.27 0 0 0-1.614-.674H9.61a2.27 2.27 0 0 0-1.614.674 2.3 2.3 0 0 0-.669 1.626v.92h.457v-.92c0-.488.192-.956.535-1.3.342-.346.806-.54 1.29-.54h13.696c.485 0 .949.194 1.291.54.343.344.535.812.535 1.3v16.56c0 .488-.192.956-.535 1.3-.342.346-.806.54-1.29.54H9.608c-.485 0-.949-.194-1.291-.54a1.85 1.85 0 0 1-.535-1.3m18.717 0c0 .854-.337 1.673-.936 2.277-.6.604-1.412.943-2.26.943H9.61c-.848 0-1.66-.339-2.26-.943a3.23 3.23 0 0 1-.936-2.277v-1.84h2.283v1.84c0 .244.096.478.267.65a.9.9 0 0 0 .646.27h13.695a.9.9 0 0 0 .646-.27.92.92 0 0 0 .267-.65V7.72a.92.92 0 0 0-.267-.65.9.9 0 0 0-.646-.27H9.61a.9.9 0 0 0-.646.27.92.92 0 0 0-.267.65v1.84H6.413V7.72c0-.854.337-1.673.936-2.277a3.18 3.18 0 0 1 2.26-.943h13.695c.848 0 1.66.339 2.26.943s.936 1.423.936 2.277z" fill="#fff"/><path d="M6.87 11.86v-.69c0-.183.072-.358.2-.488a.682.682 0 0 1 1.17.488v.69h.684c.182 0 .356.073.484.202a.693.693 0 0 1-.484 1.178h-2.74a.68.68 0 0 1-.483-.202.693.693 0 0 1 .484-1.178zm0 4.14v-.69c0-.183.072-.359.2-.488a.682.682 0 0 1 1.17.488V16h.684c.182 0 .356.073.484.202a.693.693 0 0 1-.484 1.178h-2.74a.68.68 0 0 1-.483-.202A.693.693 0 0 1 6.185 16zm0 4.14v-.69c0-.183.072-.358.2-.488a.682.682 0 0 1 1.17.488v.69h.684c.182 0 .356.073.484.202a.693.693 0 0 1-.484 1.178h-2.74a.68.68 0 0 1-.483-.202.693.693 0 0 1 .484-1.178z" fill="#fff"/></svg>