<svg width="32" height="32" viewBox="0 0 32 32" fill="none" xmlns="http://www.w3.org/2000/svg"><path d="M25.2 16a9.2 9.2 0 1 0-18.4 0 9.2 9.2 0 0 0 18.4 0m2.3 0c0 6.351-5.149 11.5-11.5 11.5S4.5 22.351 4.5 16 9.649 4.5 16 4.5 27.5 9.649 27.5 16" fill="#787878"/><path d="m10.836 14.275.177.009c.87.088 1.548.823 1.548 1.716v.011l-.009.177a1.725 1.725 0 0 1-1.716 1.548h-.011A1.725 1.725 0 0 1 9.1 16.011V16l.009-.177a1.725 1.725 0 0 1 1.716-1.548zm5.175 0 .177.009c.87.088 1.548.823 1.548 1.716v.011l-.009.177a1.725 1.725 0 0 1-1.716 1.548H16a1.725 1.725 0 0 1-1.725-1.725V16l.009-.177A1.725 1.725 0 0 1 16 14.275zm5.175 0 .177.009c.87.088 1.548.823 1.548 1.716v.011l-.009.177a1.725 1.725 0 0 1-1.716 1.548h-.011a1.725 1.725 0 0 1-1.725-1.725V16l.009-.177a1.725 1.725 0 0 1 1.716-1.548z" fill="#787878"/></svg>